<svg id="Capa_1" enable-background="new 0 0 512 512" height="512" viewBox="0 0 512 512" width="512" xmlns="http://www.w3.org/2000/svg"><g><g><path d="m225.094 0h-155.557c-34.137 0-61.811 27.674-61.811 61.811v5.014h61.811c-34.137 0-61.811 27.674-61.811 61.811v5.014h61.811c-34.137 0-61.811 27.674-61.811 61.811v5.014h61.811c-34.137 0-61.811 27.674-61.811 61.811v5.014h61.811c-34.137 0-61.811 27.674-61.811 61.811v5.014l67.949 41.039 180.325 10 10-197.582-10-156.677c0-17.068-13.837-30.905-30.906-30.905z" fill="#c47e4e"/><path d="m504.274 61.811c0-34.137-27.674-61.811-61.811-61.811h-155.557c-17.069 0-30.906 13.837-30.906 30.905v354.258l180.325-10 67.949-41.039v-5.014c0-34.137-27.674-61.811-61.811-61.811h61.811v-5.014c0-34.137-27.674-61.811-61.811-61.811h61.811v-5.014c0-34.137-27.674-61.811-61.811-61.811h61.811v-5.014c0-34.137-27.674-61.811-61.811-61.811h61.811z" fill="#9b5e34"/></g><g><path d="m80.653 374.682c-34.137 0-61.811 27.674-61.811 61.811v75.507h237.158l10-53.5-10-83.818z" fill="#9b5e34"/><path d="m493.158 436.493c0-34.137-27.674-61.811-61.811-61.811h-175.347v137.318h237.158z" fill="#824e2b"/></g><g><g><path d="m189.015 82.333c-36.995 0-66.985 29.99-66.985 66.985v170.661l133.97 21.372 10-96.344-10-95.694c-.003-36.992-29.992-66.98-66.985-66.98z" fill="#f2d1a5"/><path d="m322.985 82.333c-36.995 0-66.985 29.99-66.985 66.985 0-.002 0-.003 0-.005v192.038l133.969-21.373v-170.63-.03c0-36.995-29.99-66.985-66.984-66.985z" fill="#f2bb88"/></g><g><path d="m221.468 291.351-25.785 28.627h-73.652v176.332h5.026c34.219 0 61.959-27.74 61.959-61.959v61.959h5.026c34.217 0 61.956-27.737 61.959-61.954l10-71.891-10-71.114z" fill="#d19a75"/><path d="m389.969 319.979h-73.652l-25.785-28.627h-34.532v143.006c0-.002 0-.003 0-.005 0 34.219 27.74 61.959 61.959 61.959h5.026v-61.959c0 34.219 27.74 61.959 61.959 61.959h5.026z" fill="#c47e4e"/></g></g><path d="m188.991 200.827h30v44.18h-30z" fill="#736e6e"/><path d="m293.009 200.827h30v44.18h-30z" fill="#464141"/><g><path d="m256 215.827h-87.625v-30h87.625l10 15z" fill="#d19a75"/></g><g><path d="m256 185.827h87.625v30h-87.625z" fill="#c47e4e"/></g></g></svg>