<svg id="Capa_1" enable-background="new 0 0 512 512" height="512" viewBox="0 0 512 512" width="512" xmlns="http://www.w3.org/2000/svg"><g><g><path d="m219.48 0c-101.674.051-183.551 83.729-183.551 185.403l.106 296.683c.003 7.256 7.136 12.471 13.991 10.093 12.95-4.491 27.901-1.566 38.243 8.777l.226.226c14.422 14.422 37.805 14.422 52.228 0l.226-.226c14.422-14.422 37.805-14.422 52.228 0l.226.226c7.205 7.205 16.647 10.81 26.091 10.816l10-249.23-9.999-262.768z" fill="#fff5f5"/><path d="m444.142 0h-224.647v512c9.459.006 18.92-3.599 26.137-10.816l.226-.226c14.422-14.422 37.805-14.422 52.228 0l.226.226c14.422 14.422 37.805 14.422 52.228 0l.226-.226c10.343-10.343 25.296-13.269 38.246-8.776 6.854 2.378 13.987-2.837 13.991-10.092l.217-418.231h40.922c17.634 0 31.929-14.295 31.929-31.929 0-17.635-14.295-31.93-31.929-31.93z" fill="#ebe1dc"/></g><g><circle cx="152.564" cy="217.899" fill="#ebe1dc" r="31.929"/><circle cx="286.586" cy="217.899" fill="#c8beb9" r="31.929"/></g></g></svg>