<svg id="Capa_1" enable-background="new 0 0 510 510" height="512" viewBox="0 0 510 510" width="512" xmlns="http://www.w3.org/2000/svg"><g><path d="m225.411 142.607-30.432 7.393v41.249c-61.123 23.78-105 83.422-105 153.751 0 90.981 74.019 165 165 165l15-195-15-165z" fill="#f9f0f1"/><path d="m387.324 246.449c-18.701-25.075-43.554-43.999-72.345-55.2v-41.249l-27.75-7.393-32.25 7.393v360c136.234 0 212.59-155.957 132.345-263.551z" fill="#e1def1"/><path d="m254.979 330c-41.221 24.732-91.611 27.361-134.797 7.925-3.995 77.941 58.274 142.075 134.797 142.075l15-75z" fill="#8ee26b"/><path d="m387.885 321.229c-42.76-18.518-92.286-15.602-132.905 8.771v150c83.264 0 147.62-75.25 132.905-158.771z" fill="#00cb75"/><path d="m314.979 360h30v30h-30z" fill="#e1def1"/><path d="m194.979 405h30v30h-30z" fill="#f9f0f1"/><path d="m269.979 420h30v30h-30z" fill="#e1def1"/><path d="m206.682 0 11.446 75 19.851 9.25 17-9.25 10-32.875-10-42.125z" fill="#b0866b"/><path d="m303.276 0h-48.297v75l17.5 9.25 19.352-9.25z" fill="#9d6b5d"/><path d="m164.979 75v75h90l10-37.5-10-37.5z" fill="#ffdc75"/><path d="m254.979 75h90v75h-90z" fill="#ffc649"/></g></svg>