<svg id="Capa_1" enable-background="new 0 0 512 512" height="512" viewBox="0 0 512 512" width="512" xmlns="http://www.w3.org/2000/svg"><g><g><path d="m225.094 0h-155.557c-34.137 0-61.811 27.674-61.811 61.811v5.014h61.811c-34.137 0-61.811 27.674-61.811 61.811v5.014h61.811c-34.137 0-61.811 27.674-61.811 61.811v5.014h61.811c-34.137 0-61.811 27.674-61.811 61.811v5.014h61.811c-34.137 0-61.811 27.674-61.811 61.811v5.014l67.949 41.039 180.325 10 10-197.582-10-156.677c0-17.068-13.837-30.905-30.906-30.905z" fill="#b3d8f4"/><path d="m504.274 61.811c0-34.137-27.674-61.811-61.811-61.811h-155.557c-17.069 0-30.906 13.837-30.906 30.905v354.258l180.325-10 67.949-41.039v-5.014c0-34.137-27.674-61.811-61.811-61.811h61.811v-5.014c0-34.137-27.674-61.811-61.811-61.811h61.811v-5.014c0-34.137-27.674-61.811-61.811-61.811h61.811v-5.014c0-34.137-27.674-61.811-61.811-61.811h61.811z" fill="#87c0ed"/></g><g><g><g><path d="m80.653 374.682c-34.137 0-61.811 27.674-61.811 61.811v75.507h237.158l10-53.5-10-83.818z" fill="#87c0ed"/><path d="m493.158 436.493c0-34.137-27.674-61.811-61.811-61.811h-175.347v137.318h237.158z" fill="#69b1e9"/></g><path d="m121.991 356.597v139.241h5.028c34.229 0 61.977-27.748 61.977-61.977v61.977h5.028c34.227 0 61.974-27.746 61.977-61.972l10-41.599-10-35.669h-134.01z" fill="#b3d8f4"/><path d="m256 356.597v77.268c0-.002 0-.003 0-.005 0 34.229 27.748 61.977 61.977 61.977h5.028v-61.977c0 34.229 27.748 61.977 61.977 61.977h5.028v-139.24z" fill="#87c0ed"/></g><path d="m222.639 99.988-33.456 33.456-33.476-33.476-33.717 33.716v.03 222.882c0 17.069 13.837 30.905 30.906 30.905h103.104l10-134.835-10-119.319z" fill="#f2d1a5"/><path d="m356.573 100.278-33.065 33.065-33.436-33.436-33.757 33.757-.315-.315v254.154h103.104c17.069 0 30.906-13.837 30.906-30.905v-222.884z" fill="#f2bb88"/></g><path d="m188.976 200.266h30v44.193h-30z" fill="#e3a76f"/><path d="m293.024 200.266h30v44.193h-30z" fill="#d6995c"/><g><g><path d="m256 215.266h-87.651v-30h87.651l10 14.999z" fill="#b3d8f4"/></g></g><g><path d="m210.095 286.868h30v38.823h-30z" fill="#fff5f5"/></g><g><path d="m271.905 286.868h30v38.823h-30z" fill="#ebe1dc"/></g><g><path d="m256 340.691h-67.477v-30h67.477l10 15z" fill="#d6995c"/></g><g><path d="m256 310.691h67.477v30h-67.477z" fill="#c48958"/></g><g><g><path d="m256 185.266h87.651v30h-87.651z" fill="#87c0ed"/></g></g></g></svg>